<!-- icon666.com - MILLIONS vector ICONS FREE --><svg viewBox="0 0 64 64" xmlns="http://www.w3.org/2000/svg"><g id="User"><path d="m32 34a16 16 0 1 0 -16-16 16.01833 16.01833 0 0 0 16 16zm0-30a14 14 0 1 1 -14 14 14.01573 14.01573 0 0 1 14-14z"></path><path d="m32 36a25.02817 25.02817 0 0 0 -25 25 .99942.99942 0 0 0 1 1h48a.99942.99942 0 0 0 1-1 25.02817 25.02817 0 0 0 -25-25zm7.3692 3.21674-7.3692 7.3692-7.3692-7.3692a22.92428 22.92428 0 0 1 14.7384 0zm-30.34772 20.78326a23.037 23.037 0 0 1 13.57972-19.98474l8.6918 8.69174a.99964.99964 0 0 0 1.41406 0l8.69177-8.69177a23.037 23.037 0 0 1 13.57969 19.98477z"></path></g></svg>