<svg xmlns="http://www.w3.org/2000/svg" width="16" height="16" viewBox="0 0 16 16"><path d="M10 14C10 15.105 9.104 16 8 16C6.894 16 6 15.105 6 14M15 12C15 10.437 14.292 9.40599 13.668 8.49799C13.21 7.83099 12.813 7.25301 12.692 6.47501L12.165 3.60001C11.812 1.51401 10.06 0 8 0C5.94 0 4.188 1.514 3.836 3.586L3.30298 6.50101C3.18698 7.25301 2.78997 7.82999 2.33197 8.49799C1.70697 9.40599 1 10.437 1 12C1 12.552 1.448 13 2 13H14C14.552 13 15 12.552 15 12ZM3.979 9.63C4.501 8.87101 5.09199 8.00999 5.27399 6.83499L5.80499 3.93399C5.99499 2.81299 6.91802 2 7.99902 2C9.08002 2 10.003 2.81301 10.195 3.94601L10.719 6.80701C10.906 8.00901 11.496 8.87 12.018 9.629C12.349 10.111 12.639 10.533 12.815 10.999H3.17999C3.35899 10.534 3.648 10.112 3.979 9.63Z" fill="#fff"/></svg>